<svg xmlns="http://www.w3.org/2000/svg" height="96" viewBox="0 0 200 96" width="200"><g fill="none" fill-rule="evenodd"><path d="m3.84 0-3.84 9.824h1.28l1.12-2.96h4.048l1.136 2.96h1.28l-3.84-9.824zm.576 1.568 1.6 4.192h-3.2z" fill="#222" fill-rule="nonzero" transform="translate(7.568 43.176)"></path><path d="m11.5 0v32" stroke="#222"></path><path d="m11.5 64v32" stroke="#222"></path><path d="m5.04 4.736c.768-.24 1.44-.96 1.44-2.128 0-1.696-1.216-2.608-3.248-2.608h-3.232v9.824h3.552c2.016 0 3.264-.976 3.264-2.768 0-1.104-.72-2.048-1.776-2.32zm-3.808-.464v-3.168h2c1.312 0 2.032.496 2.032 1.568s-.72 1.6-2.032 1.6zm0 1.056h2.32c1.328 0 2.032.656 2.032 1.696 0 1.024-.704 1.696-2.032 1.696h-2.32z" fill="#222" fill-rule="nonzero" transform="translate(184.864 43.176)"></path><path d="m187.5 0v32" stroke="#222"></path><path d="m187.5 64v32" stroke="#222"></path><g fill="#222"><path d="m36 0v96h32v-96z"></path><path d="m132 0v96h32v-96z"></path></g></g></svg>