<svg xmlns="http://www.w3.org/2000/svg" height="140" viewBox="0 0 232 140" width="232"><g fill="none" fill-rule="evenodd"><path d="m3.84 0-3.84 9.824h1.28l1.12-2.96h4.048l1.136 2.96h1.28l-3.84-9.824zm.576 1.568 1.6 4.192h-3.2z" fill="#222" fill-rule="nonzero" transform="translate(111.568 5.176)"></path><path d="m36 9.5h64" stroke="#222"></path><path d="m132 9.5h64" stroke="#222"></path><path d="m5.04 4.736c.768-.24 1.44-.96 1.44-2.128 0-1.696-1.216-2.608-3.248-2.608h-3.232v9.824h3.552c2.016 0 3.264-.976 3.264-2.768 0-1.104-.72-2.048-1.776-2.32zm-3.808-.464v-3.168h2c1.312 0 2.032.496 2.032 1.568s-.72 1.6-2.032 1.6zm0 1.056h2.32c1.328 0 2.032.656 2.032 1.696 0 1.024-.704 1.696-2.032 1.696h-2.32z" fill="#222" fill-rule="nonzero" transform="translate(8.864 77.176)"></path><path d="m11.5 34v32" stroke="#222"></path><path d="m11.5 98v32" stroke="#222"></path><path d="m0 5.056c0 3.056 1.92 5.056 4.4 5.056 2.048 0 3.424-1.2 3.824-3.04h-1.248c-.4 1.152-1.216 1.904-2.576 1.904-1.888 0-3.136-1.6-3.136-3.92 0-2.336 1.264-3.92 3.136-3.92 1.36 0 2.176.752 2.576 1.888h1.248c-.4-1.824-1.76-3.024-3.824-3.024-2.48 0-4.4 2-4.4 5.056z" fill="#222" fill-rule="nonzero" transform="translate(215.904 61.032)"></path><path d="m219.5 34v16" stroke="#222"></path><path d="m219.5 82v16" stroke="#222"></path><path d="m36 34v96h32v-64h96v32h32v-64z" fill="#222"></path></g></svg>